HIERARCHY
ROOT Hips
{
  OFFSET 5.84602e-005 68.8428 3.50346
  CHANNELS 6 Xposition Yposition Zposition Zrotation Xrotation Yrotation
  JOINT Spine
  {
    OFFSET 0 8.597 -4.6522
    CHANNELS 3 Zrotation Xrotation Yrotation
    JOINT Spine1
    {
      OFFSET 0 7.8454 0.4098
      CHANNELS 3 Zrotation Xrotation Yrotation
      JOINT Spine2
      {
        OFFSET 0 9.7078 -2.1609
        CHANNELS 3 Zrotation Xrotation Yrotation
        JOINT Neck
        {
          OFFSET 0 21.8761 -0.4549
          CHANNELS 3 Zrotation Xrotation Yrotation
          JOINT Head
          {
            OFFSET 0 12.3537 3.3602
            CHANNELS 3 Zrotation Xrotation Yrotation
            End Site
            {
              OFFSET 0.0001 18.9506 0.5657
            }
          }
        }
        JOINT LeftShoulder
        {
          OFFSET 2.2086 21.1115 7.2329
          CHANNELS 3 Zrotation Xrotation Yrotation
          JOINT LeftArm
          {
            OFFSET 13.1193 3.0282 -4.8998
            CHANNELS 3 Zrotation Xrotation Yrotation
            JOINT LeftForeArm
            {
              OFFSET 27.4081 -0.0973053 -0.2375
              CHANNELS 3 Zrotation Xrotation Yrotation
              JOINT LeftHand
              {
                OFFSET 22.8641 0.0662994 -0.1369
                CHANNELS 3 Zrotation Xrotation Yrotation
                JOINT LeftHandIndex1
                {
                  OFFSET 8.8614 0.775009 2.4612
                  CHANNELS 3 Zrotation Xrotation Yrotation
                  JOINT LeftHandIndex2
                  {
                    OFFSET 3.3146 -0.808304 0.5841
                    CHANNELS 3 Zrotation Xrotation Yrotation
                    JOINT LeftHandIndex3
                    {
                      OFFSET 2.2628 -0.552002 0.3989
                      CHANNELS 3 Zrotation Xrotation Yrotation
                      End Site
                      {
                        OFFSET 1.6102 -0.4807 0.2612
                      }
                    }
                  }
                }
                JOINT LeftHandMiddle1
                {
                  OFFSET 8.9937 0.895004 0.2143
                  CHANNELS 3 Zrotation Xrotation Yrotation
                  JOINT LeftHandMiddle2
                  {
                    OFFSET 4.0984 0.0113983 -0.0242
                    CHANNELS 3 Zrotation Xrotation Yrotation
                    JOINT LeftHandMiddle3
                    {
                      OFFSET 2.2716 0.00689697 -0.0138001
                      CHANNELS 3 Zrotation Xrotation Yrotation
                      End Site
                      {
                        OFFSET 2.0404 -0.1441 0.0027
                      }
                    }
                  }
                }
                JOINT LeftHandRing1
                {
                  OFFSET 8.5234 0.597198 -2.0164
                  CHANNELS 3 Zrotation Xrotation Yrotation
                  JOINT LeftHandRing2
                  {
                    OFFSET 3.7188 -0.188293 -0.2328
                    CHANNELS 3 Zrotation Xrotation Yrotation
                    JOINT LeftHandRing3
                    {
                      OFFSET 2.1191 -0.106598 -0.1332
                      CHANNELS 3 Zrotation Xrotation Yrotation
                      End Site
                      {
                        OFFSET 1.8737 -0.2304 -0.0886
                      }
                    }
                  }
                }
                JOINT LeftHandPinky1
                {
                  OFFSET 7.9094 -0.601089 -3.4825
                  CHANNELS 3 Zrotation Xrotation Yrotation
                  JOINT LeftHandPinky2
                  {
                    OFFSET 2.2874 -0.477005 -0.6314
                    CHANNELS 3 Zrotation Xrotation Yrotation
                    JOINT LeftHandPinky3
                    {
                      OFFSET 1.6774 -0.349396 -0.4633
                      CHANNELS 3 Zrotation Xrotation Yrotation
                      End Site
                      {
                        OFFSET 1.4888 -0.4091 -0.3416
                      }
                    }
                  }
                }
                JOINT LeftHandThumb1
                {
                  OFFSET 1.833 -1.3875 1.3896
                  CHANNELS 3 Zrotation Xrotation Yrotation
                  JOINT LeftHandThumb2
                  {
                    OFFSET 3.4129 -1.121 2.5732
                    CHANNELS 3 Zrotation Xrotation Yrotation
                    JOINT LeftHandThumb3
                    {
                      OFFSET 2.2474 -0.804199 1.6192
                      CHANNELS 3 Zrotation Xrotation Yrotation
                      End Site
                      {
                        OFFSET 1.6527 -0.5689 1.1317
                      }
                    }
                  }
                }
              }
            }
          }
        }
        JOINT RightShoulder
        {
          OFFSET -2.2086 21.1115 7.2329
          CHANNELS 3 Zrotation Xrotation Yrotation
          JOINT RightArm
          {
            OFFSET -13.1216 3.0287 -4.9007
            CHANNELS 3 Zrotation Xrotation Yrotation
            JOINT RightForeArm
            {
              OFFSET -27.4081 -0.0973053 -0.2375
              CHANNELS 3 Zrotation Xrotation Yrotation
              JOINT RightHand
              {
                OFFSET -22.8641 0.0664063 -0.1369
                CHANNELS 3 Zrotation Xrotation Yrotation
                JOINT RightHandIndex1
                {
                  OFFSET -8.8614 0.774994 2.4612
                  CHANNELS 3 Zrotation Xrotation Yrotation
                  JOINT RightHandIndex2
                  {
                    OFFSET -3.3146 -0.808304 0.5841
                    CHANNELS 3 Zrotation Xrotation Yrotation
                    JOINT RightHandIndex3
                    {
                      OFFSET -2.2628 -0.552002 0.3989
                      CHANNELS 3 Zrotation Xrotation Yrotation
                      End Site
                      {
                        OFFSET -1.6102 -0.4807 0.2612
                      }
                    }
                  }
                }
                JOINT RightHandMiddle1
                {
                  OFFSET -8.9937 0.894989 0.2143
                  CHANNELS 3 Zrotation Xrotation Yrotation
                  JOINT RightHandMiddle2
                  {
                    OFFSET -4.0984 0.0113983 -0.0242
                    CHANNELS 3 Zrotation Xrotation Yrotation
                    JOINT RightHandMiddle3
                    {
                      OFFSET -2.2716 0.00691223 -0.0138001
                      CHANNELS 3 Zrotation Xrotation Yrotation
                      End Site
                      {
                        OFFSET -2.0404 -0.1441 0.0027
                      }
                    }
                  }
                }
                JOINT RightHandRing1
                {
                  OFFSET -8.5234 0.597198 -2.0164
                  CHANNELS 3 Zrotation Xrotation Yrotation
                  JOINT RightHandRing2
                  {
                    OFFSET -3.7188 -0.188309 -0.2328
                    CHANNELS 3 Zrotation Xrotation Yrotation
                    JOINT RightHandRing3
                    {
                      OFFSET -2.1191 -0.106598 -0.1332
                      CHANNELS 3 Zrotation Xrotation Yrotation
                      End Site
                      {
                        OFFSET -1.8737 -0.2304 -0.0886
                      }
                    }
                  }
                }
                JOINT RightHandPinky1
                {
                  OFFSET -7.9094 -0.601105 -3.4825
                  CHANNELS 3 Zrotation Xrotation Yrotation
                  JOINT RightHandPinky2
                  {
                    OFFSET -2.2874 -0.477005 -0.6314
                    CHANNELS 3 Zrotation Xrotation Yrotation
                    JOINT RightHandPinky3
                    {
                      OFFSET -1.6774 -0.349396 -0.4633
                      CHANNELS 3 Zrotation Xrotation Yrotation
                      End Site
                      {
                        OFFSET -1.4888 -0.4091 -0.3416
                      }
                    }
                  }
                }
                JOINT RightHandThumb1
                {
                  OFFSET -1.833 -1.38751 1.3896
                  CHANNELS 3 Zrotation Xrotation Yrotation
                  JOINT RightHandThumb2
                  {
                    OFFSET -3.41299 -1.12099 2.5732
                    CHANNELS 3 Zrotation Xrotation Yrotation
                    JOINT RightHandThumb3
                    {
                      OFFSET -2.24741 -0.804108 1.6192
                      CHANNELS 3 Zrotation Xrotation Yrotation
                      End Site
                      {
                        OFFSET -1.6527 -0.5689 1.1317
                      }
                    }
                  }
                }
              }
            }
          }
        }
      }
    }
  }
  JOINT RightUpLeg
  {
    OFFSET -9.1966 3.8861 -0.7581
    CHANNELS 3 Zrotation Xrotation Yrotation
    JOINT RightLeg
    {
      OFFSET -0.7359 -41.0265 0
      CHANNELS 3 Zrotation Xrotation Yrotation
      JOINT RightFoot
      {
        OFFSET 0 -40.2855 0
        CHANNELS 3 Zrotation Xrotation Yrotation
        JOINT RightToeBase
        {
          OFFSET 0 -5.6122 11.7359
          CHANNELS 3 Zrotation Xrotation Yrotation
          End Site
          {
            OFFSET 0 0 7.8731
          }
        }
      }
    }
  }
  JOINT LeftUpLeg
  {
    OFFSET 9.1965 3.8864 -0.7581
    CHANNELS 3 Zrotation Xrotation Yrotation
    JOINT LeftLeg
    {
      OFFSET 0.7359 -41.0268 0
      CHANNELS 3 Zrotation Xrotation Yrotation
      JOINT LeftFoot
      {
        OFFSET 0 -40.2855 0
        CHANNELS 3 Zrotation Xrotation Yrotation
        JOINT LeftToeBase
        {
          OFFSET 0 -5.6122 11.7359
          CHANNELS 3 Zrotation Xrotation Yrotation
          End Site
          {
            OFFSET 0 0 7.8731
          }
        }
      }
    }
  }
}
MOTION
Frames:	6
Frame Time:	0.0333333
5.84602e-005 68.8428 3.50346 0 0 -0 0 0 -0 0 0 -0 0 0 -0 0 0 -0 0 0 -0 0 0 -0 0 0 -0 0 0 -0 0 0 -0 0 0 -0 0 0 -0 0 0 -0 0 0 -0 -0.0146107 -8.87603e-005 -2.63497e-007 2.99804e-018 -2.42657e-020 -1.42182e-022 0 0 -0 -0.0187562 -0.001176 5.858e-005 5.06224e-018 3.88251e-019 1.21329e-020 0 0 -0 -0.012269 -0.00324817 0.000675346 -1.74678e-018 3.88251e-019 -0 0 0 -0 0 0 -0 0 0 -0 0 0 -0 0 0 -0 0 0 -0 0 0 -0 0 0 -0 0 0 -0 0 0 -0 0 0 -0 0.0149955 -9.10982e-005 2.64101e-007 -9.69331e-018 1.21329e-020 -4.7394e-023 0 0 -0 0.0189956 -0.00119102 -5.96516e-005 -5.41541e-019 0 2.42657e-020 0 0 -0 0.0122698 -0.00324857 -0.000673756 -2.00796e-019 0 -1.94126e-019 0 0 -0 0 0 -0 0 0 -0 3.39842 1.33031 -0.0637918 -5.65207e-008 0.834868 -0.000436188 -3.39935 -2.16518 -0.0642563 -8.89002e-024 -1.18485e-023 -1.48106e-024 -3.39844 1.35642 0.0640283 -3.18788e-007 0.782166 -0.000588827 3.39931 -2.13858 0.0634662 1.1399e-023 0 -0 
-2.18832 27.082 25.2445 -47.0143 -3.16381 92.9312 0.0904895 -2.98158 0.00808608 0.181775 -5.9631 0.0209425 0.181778 -5.96311 0.0209352 -5.74572e-007 -5.39554 -1.65728e-005 -6.09555e-006 11.6052 1.84234e-005 0.512465 -19.9942 6.50582 -29.2561 0.935585 -20.6995 25.2637 11.2304 -62.0418 -8.57112 -35.0633 11.4911 2.49506e-006 -1.11592e-006 2.55294e-006 1.06112e-006 3.04038e-006 5.85358e-007 1.60643e-006 3.09518e-006 -2.94245e-006 2.49506e-006 -1.11592e-006 2.55294e-006 -0.014598 -8.28573e-005 -3.68006e-007 1.60613e-006 3.09555e-006 -2.94206e-006 2.49506e-006 -1.11592e-006 2.55294e-006 -0.0187273 -0.00117313 5.21035e-005 2.34338e-006 3.90031e-006 -4.24385e-006 2.49506e-006 -1.11592e-006 2.55294e-006 -0.0122225 -0.00323258 0.000669446 2.34263e-006 3.90027e-006 -4.24418e-006 2.49506e-006 -1.11592e-006 2.55294e-006 1.06112e-006 3.04038e-006 5.85358e-007 1.60643e-006 3.09518e-006 -2.94245e-006 -6.74044 -2.09139 -22.4676 31.2455 6.60362 24.0173 1.32619 -4.90297 69.9144 -19.4256 -8.79171 -15.3238 7.28248e-007 1.56785e-007 1.21134e-006 1.17433e-006 4.15674e-007 -2.87762e-007 8.22004e-007 3.17127e-007 1.72837e-006 7.28248e-007 1.56785e-007 1.21134e-006 0.0150423 -9.08334e-005 -8.41514e-007 3.9144e-007 1.38545e-007 -9.5939e-008 7.28248e-007 1.56785e-007 1.21134e-006 0.0190557 -0.00119014 -5.46825e-005 3.91439e-007 1.38542e-007 -9.59476e-008 7.28248e-007 1.56785e-007 1.21134e-006 0.0123633 -0.00327445 -0.000688887 3.91438e-007 1.38551e-007 -9.59465e-008 7.28248e-007 1.56785e-007 1.21134e-006 1.17433e-006 4.15674e-007 -2.87762e-007 8.22004e-007 3.17127e-007 1.72837e-006 0.576542 -0.236155 -2.03659 -4.0967 59.3845 2.59467 -5.25684 7.88378 1.41668 -1.43125e-014 8.94531e-016 -5.1684e-015 0.901679 -0.434386 1.34798 0.948986 43.7105 -0.321237 8.16432 20.3518 -0.880379 -7.95139e-016 -5.96354e-015 7.95139e-016 
-0.980899 -4.38578 52.211 -63.9767 -82.199 115.573 0.158735 -5.45625 0.0462354 0.32414 -10.9123 0.108475 0.324141 -10.9123 0.108479 2.08525e-006 -9.70661 1.89154e-006 5.59523e-007 21.2005 -2.96528e-007 5.18744 -36.1246 13.943 -53.1754 1.44615 -37.9717 49.6896 -13.3282 -105.202 4.8848 -60.2299 36.5995 -6.36111e-015 -2.5842e-015 -7.95139e-016 1.18791e-006 -9.13349e-007 -7.21777e-007 -3.18055e-015 -5.56597e-015 -1.59028e-015 -6.36111e-015 -2.5842e-015 -7.95139e-016 -0.0146076 -8.83235e-005 -1.92433e-006 -3.18055e-015 -3.97569e-016 7.95139e-016 -6.36111e-015 -2.5842e-015 -7.95139e-016 -0.0187616 -0.00117849 5.00174e-005 -3.18055e-015 -1.37161e-014 -2.38542e-015 -6.36111e-015 -2.5842e-015 -7.95139e-016 -0.0122354 -0.0032404 0.000680508 3.18055e-015 4.37326e-015 -1.59028e-015 -6.36111e-015 -2.5842e-015 -7.95139e-016 1.18791e-006 -9.13349e-007 -7.21777e-007 -3.18055e-015 -5.56597e-015 -1.59028e-015 -13.5325 -3.19018 -41.2653 53.4394 9.52812 44.5085 -0.699079 15.2061 124.348 -39.2071 -14.7464 -28.8164 1.19271e-015 -4.27387e-015 -6.36111e-015 3.49284e-006 -1.71504e-007 1.14655e-006 -2.38542e-015 -6.55989e-015 -3.18055e-015 1.19271e-015 -4.27387e-015 -6.36111e-015 0.0150136 -9.14954e-005 1.63563e-006 -0 -3.47873e-015 -0 1.19271e-015 -4.27387e-015 -6.36111e-015 0.0190215 -0.00119224 -6.09376e-005 3.97569e-016 1.2921e-015 -9.54166e-015 1.19271e-015 -4.27387e-015 -6.36111e-015 0.0122874 -0.00325082 -0.000672108 -1.98785e-015 -2.98177e-016 -0 1.19271e-015 -4.27387e-015 -6.36111e-015 3.49284e-006 -1.71504e-007 1.14655e-006 -2.38542e-015 -6.55989e-015 -3.18055e-015 -1.70472 -0.93907 -4.7529 -165.056 72.4339 161.513 -6.49858 17.2645 0.390798 3.76486e-007 -1.76359e-006 5.48749e-008 4.35681 -1.85116 2.69402 14.8094 78.0451 -13.9486 11.2031 40.3785 0.460303 -1.01357e-007 -8.53983e-008 -3.46781e-006 
1.28976 -11.8364 58.0319 117.689 -75.788 -63.3064 0.17395 -6.0227 0.0597497 0.357251 -12.0452 0.139166 0.357247 -12.0452 0.139168 -7.73282e-005 -9.93474 3.15829e-005 -9.60282e-008 23.2283 9.33558e-007 7.43783 -40.2152 16.5505 -59.115 1.51152 -42.2996 52.4176 -23.2005 -113.653 15.8802 -64.4851 49.8399 0 1.11071e-014 -0 3.97569e-016 4.67144e-015 7.95139e-016 3.97569e-016 7.90169e-015 -0 0 1.11071e-014 -0 -0.0146225 -8.56118e-005 5.35375e-006 3.97569e-016 -4.19933e-015 -0 0 1.11071e-014 -0 -0.0187673 -0.00117642 5.82273e-005 7.95139e-016 4.64659e-015 -7.95139e-016 0 1.11071e-014 -0 -0.0122732 -0.00324523 0.000680882 -8.34896e-015 1.09332e-015 -1.03368e-014 0 1.11071e-014 -0 3.97569e-016 4.67144e-015 7.95139e-016 3.97569e-016 7.90169e-015 -0 -15.4787 -3.57544 -46.0463 58.6279 9.66299 49.6645 -5.44426 22.0933 137.967 -44.7185 -15.9315 -32.4175 -3.18055e-015 1.19271e-015 -2.38542e-015 6.36111e-015 -1.19271e-015 -0 -5.51738e-032 3.97569e-015 7.95139e-016 -3.18055e-015 1.19271e-015 -2.38542e-015 0.0150059 -8.97946e-005 5.73299e-006 4.41391e-032 3.18055e-015 -7.95139e-016 -3.18055e-015 1.19271e-015 -2.38542e-015 0.0189934 -0.00119161 -5.78804e-005 -6.36111e-015 -5.56597e-015 -0 -3.18055e-015 1.19271e-015 -2.38542e-015 0.0122719 -0.00325 -0.000689093 3.18055e-015 5.56597e-015 -5.56597e-015 -3.18055e-015 1.19271e-015 -2.38542e-015 6.36111e-015 -1.19271e-015 -0 -5.51738e-032 3.97569e-015 7.95139e-016 -2.26741 -1.00498 -5.9031 -170.563 60.7907 165.676 -6.75409 19.5547 0.180553 2.57969e-007 3.95488e-008 1.3424e-007 5.21841 -2.23945 3.11641 52.2152 85.3618 -50.8927 11.9136 45.3994 0.697854 -2.32481e-007 7.8622e-008 5.47853e-007 
-0.0962346 -7.48179 54.7382 122.992 -88.6761 -57.2796 0.165517 -5.57732 0.0512046 0.338491 -11.1544 0.119539 0.338491 -11.1545 0.119538 -1.8999e-006 -7.99652 8.44132e-007 1.53878e-008 21.2432 -4.32996e-008 6.48838 -38.3276 15.2467 -55.6336 1.47666 -39.7613 51.0233 -17.2953 -108.756 9.49276 -62.3019 42.0158 1.59028e-015 -2.88238e-015 -0 -1.59028e-015 6.95746e-015 1.98785e-015 1.59028e-015 6.95746e-015 1.19271e-015 1.59028e-015 -2.88238e-015 -0 -0.0146068 -8.57352e-005 -2.97675e-006 1.59028e-015 5.06901e-015 -1.19271e-015 1.59028e-015 -2.88238e-015 -0 -0.0187714 -0.00117246 5.22429e-005 -1.11727e-031 -5.36719e-015 -1.19271e-015 1.59028e-015 -2.88238e-015 -0 -0.0122723 -0.00325064 0.000671408 1.59028e-015 -7.45443e-015 -1.59028e-015 1.59028e-015 -2.88238e-015 -0 -1.59028e-015 6.95746e-015 1.98785e-015 1.59028e-015 6.95746e-015 1.19271e-015 -14.5527 -3.98711 -43.3848 55.5956 9.59619 46.6329 -2.37993 18.0485 129.87 -41.646 -15.3327 -30.4884 1.59028e-015 2.38542e-015 -3.18055e-015 1.59028e-015 0 -1.59028e-015 1.59028e-015 3.57812e-015 -3.18055e-015 1.59028e-015 2.38542e-015 -3.18055e-015 0.0149776 -9.38867e-005 -4.83619e-006 -1.59028e-015 -1.98785e-016 1.59028e-015 1.59028e-015 2.38542e-015 -3.18055e-015 0.0189852 -0.00119101 -6.55661e-005 1.60004e-031 -5.76476e-015 1.59028e-015 1.59028e-015 2.38542e-015 -3.18055e-015 0.0122587 -0.00324683 -0.000678655 -1.59028e-015 1.21259e-014 -3.18055e-015 1.59028e-015 2.38542e-015 -3.18055e-015 1.59028e-015 0 -1.59028e-015 1.59028e-015 3.57812e-015 -3.18055e-015 -1.95139 -0.979903 -5.18134 -167.967 67.6358 163.911 -6.61396 18.2139 0.32124 -5.46431e-007 -3.85708e-008 2.5375e-007 4.71307 -2.01559 2.86289 22.6078 81.391 -21.566 11.5071 42.4512 0.548862 -2.38542e-015 0 -0 
-0.252893 -6.95575 54.3209 -96.6932 -89.7265 83.0384 0.164642 -5.46102 0.0499735 0.336405 -10.9219 0.116596 0.336405 -10.9219 0.116596 9.35069e-006 -6.76012 -1.01518e-006 2.49188e-007 20.5635 -1.36428e-007 6.62049 -38.3758 15.248 -55.2161 1.47182 -39.4572 50.8164 -16.6087 -108.16 9.13618 -62.0768 41.3993 1.59028e-015 7.95139e-016 3.97569e-016 4.77083e-015 4.37326e-015 -3.97569e-016 1.59028e-015 -4.96962e-015 -7.95139e-016 1.59028e-015 7.95139e-016 3.97569e-016 -0.0145999 -8.23155e-005 -7.15585e-006 -1.27222e-014 -7.95139e-016 -1.98785e-015 1.59028e-015 7.95139e-016 3.97569e-016 -0.0187622 -0.00116785 5.65263e-005 5.06839e-007 1.85957e-006 -1.33692e-006 1.59028e-015 7.95139e-016 3.97569e-016 -0.0122956 -0.00325345 0.000680314 7.95139e-015 -2.38542e-015 -0 1.59028e-015 7.95139e-016 3.97569e-016 4.77083e-015 4.37326e-015 -3.97569e-016 1.59028e-015 -4.96962e-015 -7.95139e-016 -14.5638 -4.38448 -43.1462 55.229 9.57087 46.2645 -2.06312 17.5594 128.898 -41.382 -15.2997 -30.3634 1.54487e-031 2.78299e-015 -3.18055e-015 -1.59028e-015 3.57812e-015 -0 -7.95139e-016 0 -0 1.54487e-031 2.78299e-015 -3.18055e-015 0.014996 -8.60053e-005 9.88885e-006 -2.38542e-015 9.54166e-015 -0 1.54487e-031 2.78299e-015 -3.18055e-015 0.0189995 -0.00119163 -6.48686e-005 -6.62086e-032 2.38542e-015 1.59028e-015 1.54487e-031 2.78299e-015 -3.18055e-015 0.0122935 -0.00325588 -0.000675734 1.59028e-015 3.18055e-015 -1.59028e-015 1.54487e-031 2.78299e-015 -3.18055e-015 -1.59028e-015 3.57812e-015 -0 -7.95139e-016 0 -0 -1.91988 -0.980075 -5.09935 -167.559 68.4529 163.594 -6.59526 18.053 0.334583 2.59712e-007 -3.19869e-006 -5.66841e-007 4.65246 -1.98924 2.83363 20.8886 80.8388 -19.8784 11.4563 42.0986 0.53295 2.34447e-007 -6.84707e-008 -8.13504e-007 
